<svg width="18" height="18" viewBox="0 0 18 18" fill="none" xmlns="http://www.w3.org/2000/svg">
<path d="M3.00293 6.06738V6.06934L3.99023 8.4043L4.20801 8.91895L4.72363 8.70117L7.04297 7.7207H7.04492L7.0459 7.72168H7.04688V7.72363H7.04785L7.04688 7.72559L7.04492 7.72754L4.20801 8.92676H4.20508L4.20312 8.9248L2.99707 6.07227V6.06836L2.99805 6.06738H3.00293Z" fill="#0E121B" stroke="#525866" stroke-width="1.11818"/>
<path d="M9.68652 3.68262C12.6209 3.68262 15.0038 6.06472 15.0039 8.99902C15.0039 11.9395 12.6209 14.3164 9.68652 14.3164C7.98158 14.3164 6.46802 13.5173 5.49121 12.2734L5.30371 12.0186L5.30273 12.0176V12.0156L5.30371 12.0146V12.0137H5.30469L5.30566 12.0127H5.30664L5.30859 12.0137V12.0146C6.27137 13.4013 7.87022 14.3095 9.68652 14.3096C12.6172 14.3096 14.9971 11.9357 14.9971 8.99902C14.997 6.06848 12.6171 3.68848 9.68652 3.68848C6.88868 3.68855 4.59631 5.84825 4.38965 8.58691L4.37598 8.85352V8.85547L4.37402 8.85742H4.37207L4.37109 8.85645H4.37012V8.85352C4.44297 5.98595 6.79474 3.68269 9.68652 3.68262Z" fill="#0E121B" stroke="#525866" stroke-width="1.11818"/>
</svg>
